<?xml version="1.0" standalone="no"?>
<!DOCTYPE svg PUBLIC "-//W3C//DTD SVG 20010904//EN"
 "http://www.w3.org/TR/2001/REC-SVG-20010904/DTD/svg10.dtd">
<svg version="1.0" xmlns="http://www.w3.org/2000/svg"
 width="473.000000pt" height="527.000000pt" viewBox="0 0 473.000000 527.000000"
 preserveAspectRatio="xMidYMid meet">

<g transform="translate(0.000000,527.000000) scale(0.100000,-0.100000)"
fill="#000000" stroke="none">
<path d="M1825 5129 c-559 -44 -765 -103 -839 -239 -26 -49 -48 -175 -51 -303
-2 -96 -7 -133 -19 -152 -9 -13 -16 -37 -16 -53 0 -45 30 -67 184 -131 24 -10
27 -15 22 -38 -4 -14 -23 -46 -42 -71 -33 -44 -35 -49 -32 -118 2 -65 -1 -76
-25 -107 -33 -44 -67 -68 -149 -108 -179 -89 -304 -203 -364 -333 -82 -179
-176 -653 -208 -1051 -17 -198 -36 -621 -36 -775 0 -202 16 -327 58 -451 89
-266 247 -417 547 -524 86 -31 91 -34 103 -71 24 -73 69 -94 332 -154 164 -37
472 -93 635 -114 66 -9 133 -18 148 -21 15 -3 162 -10 326 -15 332 -12 525 -4
741 31 216 35 270 58 322 135 24 37 38 45 120 73 108 38 269 118 352 173 161
110 291 290 365 506 100 290 115 605 56 1197 -75 762 -143 1031 -308 1211 -71
77 -156 135 -307 207 -140 67 -175 100 -173 160 4 75 -6 106 -53 158 -39 44
-45 56 -42 87 3 35 7 39 83 79 138 74 175 136 119 202 -25 30 -26 35 -27 183
-2 141 -4 157 -27 203 -56 112 -201 162 -578 200 -340 33 -939 45 -1217 24z
m915 -30 c538 -26 797 -86 855 -200 23 -43 12 -74 -38 -110 -138 -101 -411
-198 -658 -233 -271 -40 -896 -46 -1179 -11 -242 29 -482 82 -601 133 -103 44
-146 112 -116 183 51 122 220 181 637 224 315 33 624 37 1100 14z m880 -414
c0 -117 -17 -166 -73 -206 -46 -33 -64 -36 -70 -11 -14 49 -30 216 -22 219 6
2 42 23 80 48 39 24 73 44 78 44 4 1 7 -42 7 -94z m-2546 -24 c32 -20 37 -28
33 -50 -3 -14 -11 -63 -17 -109 -7 -45 -16 -85 -21 -88 -11 -6 -59 19 -81 43
-24 26 -32 94 -23 197 l7 86 32 -28 c18 -15 49 -38 70 -51z m2346 -13 c0 -7 7
-58 15 -113 13 -89 12 -101 -1 -111 -28 -22 -195 -77 -203 -68 -10 11 -31 140
-31 189 0 27 5 38 23 45 87 36 174 69 185 69 6 1 12 -5 12 -11z m-2095 -113
c-16 -104 -37 -175 -51 -175 -23 0 -148 32 -157 40 -9 8 10 170 23 206 l8 21
92 -26 92 -25 -7 -41z m200 -11 c-2 -57 -18 -203 -23 -211 -8 -12 -156 17
-172 33 -7 7 20 170 34 210 5 14 161 -17 161 -32z m1648 -21 c4 -38 9 -91 13
-119 l6 -51 -102 -27 c-56 -15 -104 -25 -107 -22 -3 3 -8 59 -11 124 l-5 119
84 20 c123 30 115 33 122 -44z m-1493 12 c62 -8 115 -16 117 -18 1 -2 -2 -54
-9 -116 -7 -73 -16 -115 -24 -118 -7 -2 -57 3 -112 11 -55 9 -103 16 -107 16
-4 0 -4 46 0 103 6 92 12 137 19 137 1 0 53 -7 116 -15z m1253 -17 c8 -33 12
-216 5 -223 -8 -9 -172 -34 -178 -28 -3 2 -6 60 -8 128 l-4 124 44 5 c24 3 54
7 68 10 58 8 68 6 73 -16z m729 -61 c-18 -32 -105 -97 -129 -97 -11 0 -49 58
-41 64 2 2 25 16 51 31 27 15 58 41 70 57 l22 29 23 -26 c22 -27 22 -27 4 -58z
m-1644 47 c10 -3 12 -33 10 -126 l-3 -123 -65 3 c-36 2 -83 7 -105 11 l-40 7
2 59 c1 33 5 88 8 121 l6 62 87 -5 c48 -2 93 -6 100 -9z m700 -116 l3 -127
-43 -5 c-24 -3 -67 -7 -97 -8 -52 -3 -55 -2 -62 24 -4 16 -9 74 -11 130 l-3
103 60 6 c33 3 80 6 105 5 l45 -1 3 -127z m-470 106 c10 -3 12 -33 10 -126
l-3 -123 -75 -3 c-126 -5 -120 -12 -120 132 0 67 2 125 5 128 6 5 162 -1 183
-8z m226 -36 c3 -29 7 -89 8 -133 l3 -80 -98 -3 -97 -3 -1 116 c-1 63 -2 121
-3 128 -1 11 54 21 145 25 l37 2 6 -52z m-1476 -33 c20 -14 42 -25 49 -25 16
0 17 -34 3 -61 -10 -18 -12 -18 -61 6 -55 28 -64 42 -55 80 8 31 18 31 64 0z
m2476 -50 c11 -19 17 -37 15 -38 -10 -8 -197 -87 -206 -87 -12 0 -33 44 -33
68 0 12 27 27 98 53 53 20 99 37 102 38 3 0 14 -15 24 -34z m-2272 -17 l80
-22 -5 -39 c-3 -21 -8 -41 -11 -44 -10 -10 -186 50 -186 63 0 24 19 64 31 64
6 0 47 -10 91 -22z m218 -56 c75 -18 75 -18 78 -52 4 -62 -5 -65 -102 -40
l-86 23 0 44 c0 50 0 50 110 25z m1806 -25 c7 -21 9 -39 4 -42 -13 -8 -181
-45 -207 -45 -15 0 -24 9 -32 32 -6 17 -9 33 -7 35 6 7 210 61 220 59 5 -1 15
-19 22 -39z m-1586 -17 c146 -22 133 -16 127 -66 -2 -25 -8 -48 -11 -51 -3 -4
-55 2 -114 13 l-107 19 -3 48 c-4 54 -4 54 108 37z m1806 -26 c4 -22 24 -56
52 -87 44 -50 44 -51 39 -107 -5 -45 -2 -62 13 -88 26 -43 88 -85 191 -131
186 -83 319 -199 388 -343 94 -195 172 -653 222 -1309 15 -204 7 -552 -16
-679 -61 -333 -193 -568 -410 -727 -123 -90 -372 -195 -570 -241 -300 -70
-709 -79 -1225 -26 -719 73 -1114 150 -1377 270 -138 63 -265 171 -342 291
-44 70 -95 218 -115 332 -38 225 1 1053 70 1476 52 319 129 596 191 686 67 97
157 170 296 240 160 81 233 166 207 244 -14 42 -9 60 36 126 19 28 34 57 34
65 0 21 22 18 175 -26 174 -50 341 -85 467 -99 125 -14 658 -14 825 0 300 24
627 84 749 137 38 17 74 30 81 31 7 1 15 -15 19 -35z m-488 -14 c14 -39 1 -46
-97 -56 -78 -7 -91 -2 -91 43 0 18 8 22 63 31 107 16 114 16 125 -18z m-940
-13 c15 -10 16 -73 1 -82 -5 -4 -57 -4 -115 0 l-104 7 0 48 c0 25 2 49 4 51 7
7 199 -15 214 -24z m721 -19 c6 -17 10 -33 8 -34 -2 -2 -45 -8 -97 -14 -99
-11 -109 -8 -110 33 0 9 -1 20 -2 25 -3 7 71 17 149 20 38 2 42 -1 52 -30z
m-486 2 c5 -4 7 -20 5 -36 l-3 -29 -95 0 -95 0 -3 44 -3 44 93 -7 c51 -4 97
-11 101 -16z m247 1 c5 -11 10 -28 10 -39 0 -17 -10 -20 -90 -26 -115 -9 -130
-5 -130 39 l0 34 88 4 c48 1 92 4 99 5 7 1 17 -7 23 -17z m-1345 -3590 c72
-17 238 -46 370 -66 857 -124 1404 -140 1800 -54 53 11 99 18 103 15 10 -11
-33 -48 -76 -67 -45 -20 -194 -50 -352 -71 -118 -16 -668 -15 -860 1 -363 31
-1041 165 -1121 221 -14 11 -29 29 -32 41 -5 18 -2 20 16 16 12 -3 81 -19 152
-36z"/>
<path d="M2545 4993 c-164 -4 -732 -33 -845 -43 -58 -5 -157 -12 -220 -15
-283 -17 -418 -88 -310 -165 113 -80 514 -112 1159 -92 559 18 758 39 945 99
150 48 195 95 149 152 -10 12 -36 26 -58 32 -37 8 -654 41 -700 37 -11 -1 -65
-3 -120 -5z m672 -52 c154 -10 186 -20 181 -54 -6 -40 -171 -101 -340 -126
-391 -58 -1311 -72 -1647 -26 -152 21 -241 53 -241 86 0 13 70 45 125 58 64
14 438 41 1070 75 110 6 695 -3 852 -13z"/>
</g>
</svg>
